<svg xmlns="http://www.w3.org/2000/svg" xmlns:xlink="http://www.w3.org/1999/xlink" width="500" zoomAndPan="magnify" viewBox="0 0 375 374.999991" height="500" preserveAspectRatio="xMidYMid meet" version="1.0"><defs><clipPath id="18acb83754"><path d="M 182 141 L 193 141 L 193 311.640625 L 182 311.640625 Z M 182 141 " clip-rule="nonzero"/></clipPath><clipPath id="1c5b96f487"><path d="M 64.132812 26.640625 L 310.882812 26.640625 L 310.882812 290 L 64.132812 290 Z M 64.132812 26.640625 " clip-rule="nonzero"/></clipPath></defs><rect x="-37.5" width="450" fill="#ffffff" y="-37.499999" height="449.999989" fill-opacity="1"/><rect x="-37.5" width="450" fill="#000000" y="-37.499999" height="449.999989" fill-opacity="1"/><path fill="#ffffff" d="M 244.445312 179.121094 L 244.445312 278.59375 L 255.332031 272.308594 L 255.332031 177.28125 L 246.246094 177.28125 C 245.894531 177.3125 245.109375 177.925781 244.445312 179.121094 Z M 244.445312 179.121094 " fill-opacity="1" fill-rule="nonzero"/><path fill="#ffffff" d="M 282.101562 177.28125 L 273.023438 177.28125 L 273.023438 262.09375 L 283.910156 255.808594 L 283.910156 179.125 C 283.246094 177.925781 282.457031 177.3125 282.101562 177.28125 Z M 282.101562 177.28125 " fill-opacity="1" fill-rule="nonzero"/><path fill="#ffffff" d="M 258.734375 270.34375 L 269.621094 264.058594 L 269.621094 177.28125 L 258.734375 177.28125 Z M 258.734375 270.34375 " fill-opacity="1" fill-rule="nonzero"/><path fill="#ffffff" d="M 294.820312 169.503906 C 291.570312 165.277344 286.9375 162.855469 282.105469 162.855469 L 246.246094 162.855469 C 241.417969 162.855469 236.785156 165.277344 233.535156 169.503906 C 230.566406 173.367188 228.929688 178.421875 228.929688 183.738281 L 228.929688 287.554688 L 239.816406 281.265625 L 239.816406 183.738281 C 239.816406 177.847656 243.207031 173.742188 246.246094 173.742188 L 282.105469 173.742188 C 285.148438 173.742188 288.535156 177.847656 288.535156 183.738281 L 288.535156 253.136719 L 299.421875 246.851562 L 299.421875 183.738281 C 299.425781 178.421875 297.792969 173.363281 294.820312 169.503906 Z M 294.820312 169.503906 " fill-opacity="1" fill-rule="nonzero"/><path fill="#0058ff" d="M 167.761719 143.246094 L 167.761719 300.082031 L 178.648438 306.367188 L 178.648438 141.40625 L 169.566406 141.40625 C 169.214844 141.433594 168.425781 142.046875 167.761719 143.246094 Z M 167.761719 143.246094 " fill-opacity="1" fill-rule="nonzero"/><path fill="#0058ff" d="M 205.417969 141.40625 L 196.34375 141.40625 L 196.34375 306.367188 L 207.230469 300.082031 L 207.230469 143.246094 C 206.566406 142.046875 205.777344 141.433594 205.417969 141.40625 Z M 205.417969 141.40625 " fill-opacity="1" fill-rule="nonzero"/><g clip-path="url(#18acb83754)"><path fill="#0058ff" d="M 182.050781 308.332031 L 187.496094 311.476562 L 192.941406 308.332031 L 192.941406 141.40625 L 182.050781 141.40625 Z M 182.050781 308.332031 " fill-opacity="1" fill-rule="nonzero"/></g><path fill="#0058ff" d="M 218.136719 133.625 C 214.890625 129.398438 210.257812 126.976562 205.425781 126.976562 L 169.566406 126.976562 C 164.738281 126.976562 160.105469 129.398438 156.855469 133.625 C 153.882812 137.488281 152.246094 142.542969 152.246094 147.859375 L 152.246094 291.121094 L 163.132812 297.40625 L 163.132812 147.863281 C 163.132812 141.972656 166.523438 137.867188 169.566406 137.867188 L 205.425781 137.867188 C 208.46875 137.867188 211.855469 141.972656 211.855469 147.863281 L 211.855469 297.410156 L 222.742188 291.125 L 222.742188 147.863281 C 222.746094 142.542969 221.109375 137.488281 218.136719 133.625 Z M 218.136719 133.625 " fill-opacity="1" fill-rule="nonzero"/><path fill="#ffffff" d="M 91.082031 107.367188 L 91.082031 255.808594 L 101.96875 262.09375 L 101.96875 105.527344 L 92.886719 105.527344 C 92.53125 105.558594 91.746094 106.171875 91.082031 107.367188 Z M 91.082031 107.367188 " fill-opacity="1" fill-rule="nonzero"/><path fill="#ffffff" d="M 128.738281 105.527344 L 119.660156 105.527344 L 119.660156 272.308594 L 130.546875 278.59375 L 130.546875 107.371094 C 129.882812 106.171875 129.09375 105.558594 128.738281 105.527344 Z M 128.738281 105.527344 " fill-opacity="1" fill-rule="nonzero"/><path fill="#ffffff" d="M 105.371094 264.058594 L 116.257812 270.34375 L 116.257812 105.527344 L 105.371094 105.527344 Z M 105.371094 264.058594 " fill-opacity="1" fill-rule="nonzero"/><g clip-path="url(#1c5b96f487)"><path fill="#000000" d="M 187.496094 26.648438 L 64.164062 97.855469 L 64.164062 240.269531 L 72.609375 245.144531 L 72.609375 111.984375 C 72.609375 106.015625 74.464844 100.320312 77.828125 95.945312 C 81.644531 90.988281 87.128906 88.144531 92.886719 88.144531 L 128.746094 88.144531 C 134.5 88.144531 139.988281 90.988281 143.800781 95.945312 C 147.167969 100.324219 149.019531 106.019531 149.019531 111.984375 L 149.019531 289.261719 L 149.292969 289.417969 L 149.292969 147.863281 C 149.292969 141.894531 151.148438 136.199219 154.511719 131.824219 C 158.324219 126.867188 163.8125 124.023438 169.566406 124.023438 L 205.425781 124.023438 C 211.179688 124.023438 216.667969 126.867188 220.480469 131.824219 C 223.847656 136.203125 225.699219 141.898438 225.699219 147.863281 L 225.699219 289.417969 L 225.972656 289.261719 L 225.972656 183.742188 C 225.972656 177.773438 227.824219 172.078125 231.191406 167.703125 C 235.003906 162.742188 240.492188 159.902344 246.246094 159.902344 L 282.105469 159.902344 C 287.859375 159.902344 293.351562 162.746094 297.160156 167.703125 C 300.527344 172.078125 302.382812 177.777344 302.382812 183.742188 L 302.382812 245.148438 L 310.828125 240.269531 L 310.828125 97.855469 Z M 187.496094 26.648438 " fill-opacity="1" fill-rule="nonzero"/></g><path fill="#ffffff" d="M 141.457031 97.75 C 138.207031 93.523438 133.574219 91.101562 128.742188 91.101562 L 92.886719 91.101562 C 88.054688 91.101562 83.421875 93.523438 80.171875 97.75 C 77.199219 101.609375 75.566406 106.664062 75.566406 111.984375 L 75.566406 246.851562 L 86.453125 253.136719 L 86.453125 111.984375 C 86.453125 106.09375 89.84375 101.988281 92.882812 101.988281 L 128.742188 101.988281 C 131.785156 101.988281 135.175781 106.09375 135.175781 111.984375 L 135.175781 281.265625 L 146.0625 287.554688 L 146.0625 111.984375 C 146.0625 106.667969 144.429688 101.609375 141.457031 97.75 Z M 141.457031 97.75 " fill-opacity="1" fill-rule="nonzero"/></svg>